<svg width="400" height="400" viewBox="0 0 400 400" fill="none" xmlns="http://www.w3.org/2000/svg">
<rect width="400" height="400" fill="white"/>
<ellipse cx="203" cy="294.5" rx="59" ry="14.5" fill="#F2EBE4" fill-opacity="0.5"/>
<path d="M149 127H258L248 297H159L149 127Z" fill="#F4E7D9"/>
<path d="M154 167.667C168 143.667 253 167.667 253 167.667L246 294.667H161.5L154 167.667Z" fill="#F2DDC8"/>
<circle cx="174" cy="265" r="5" fill="#7F766C" fill-opacity="0.5"/>
<circle cx="186" cy="272" r="5" fill="#7F766C" fill-opacity="0.5"/>
<circle cx="172" cy="278" r="5" fill="#7F766C" fill-opacity="0.5"/>
<circle cx="191" cy="259" r="5" fill="#7F766C" fill-opacity="0.5"/>
<circle cx="185" cy="285" r="5" fill="#7F766C" fill-opacity="0.5"/>
<circle cx="200" cy="285" r="5" fill="#7F766C" fill-opacity="0.5"/>
<circle cx="199" cy="273" r="5" fill="#7F766C" fill-opacity="0.5"/>
<circle cx="211" cy="270" r="5" fill="#7F766C" fill-opacity="0.5"/>
<circle cx="213" cy="284" r="5" fill="#7F766C" fill-opacity="0.5"/>
<circle cx="222" cy="274" r="5" fill="#7F766C" fill-opacity="0.5"/>
<circle cx="228" cy="263" r="5" fill="#7F766C" fill-opacity="0.5"/>
<circle cx="236" cy="274" r="5" fill="#7F766C" fill-opacity="0.5"/>
<circle cx="228" cy="285" r="5" fill="#7F766C" fill-opacity="0.5"/>
<circle cx="204" cy="260" r="5" fill="#7F766C" fill-opacity="0.5"/>
<rect x="149" y="116" width="109" height="7" fill="#555555"/>
<path d="M232 46H244L229 112H217L232 46Z" fill="#555555"/>
<path d="M213 127H225L199.5 234L186.5 238L213 127Z" fill="#B8AA9A"/>
</svg>
